<svg width="95" height="32" viewBox="0 0 95 32" fill="none" xmlns="http://www.w3.org/2000/svg">
<g clip-path="url(#clip0_6_86)">
<path fill-rule="evenodd" clip-rule="evenodd" d="M5 13V22.6H8C8.31516 22.6 8.62725 22.6621 8.91846 22.7827C9.20959 22.9033 9.47422 23.0801 9.69702 23.303C9.9199 23.5258 10.0967 23.7904 10.2173 24.0816C10.3379 24.3728 10.4 24.6848 10.4 25V28H17.6L26.6 19V9.4H23.6C23.2848 9.4 22.9728 9.33793 22.6815 9.21732C22.3904 9.09671 22.1258 8.91992 21.903 8.69706C21.6801 8.4742 21.5033 8.20961 21.3826 7.91844C21.2621 7.62726 21.2 7.31518 21.2 7V4H14L5 13ZM15.2 22H11V15.4L16.4 10H20.6V16.6L15.2 22Z" fill="#111111"/>
</g>
<path d="M88.5878 22.7858V13.0332H90.83V14.6556H90.8755C91.0517 14.0966 91.3373 13.6712 91.7323 13.3796C92.1273 13.0818 92.6346 12.9329 93.2544 12.9329C93.4003 12.9329 93.54 12.939 93.6737 12.9512C93.8135 12.9573 93.9289 12.9664 94.0201 12.9785V15.0475C93.935 15.0293 93.7861 15.0111 93.5734 14.9928C93.3668 14.9746 93.1542 14.9655 92.9354 14.9655C92.5526 14.9655 92.2063 15.0506 91.8964 15.2207C91.5925 15.3908 91.3525 15.643 91.1763 15.9772C91.0001 16.3114 90.912 16.7246 90.912 17.2168V22.7858H88.5878Z" fill="#111111"/>
<path d="M81.6421 22.9499C80.998 22.9499 80.4238 22.8405 79.9195 22.6217C79.4212 22.403 79.0262 22.0779 78.7346 21.6465C78.4429 21.209 78.2971 20.6682 78.2971 20.0241C78.2971 19.4711 78.4004 19.0154 78.607 18.6569C78.8136 18.2923 79.0931 18.0037 79.4455 17.791C79.804 17.5723 80.2111 17.4082 80.6668 17.2988C81.1287 17.1834 81.6057 17.1013 82.0978 17.0527C82.6933 16.9859 83.1673 16.9282 83.5197 16.8796C83.8721 16.8249 84.1274 16.7459 84.2853 16.6426C84.4433 16.5393 84.5223 16.3783 84.5223 16.1595V16.0957C84.5223 15.804 84.4524 15.5519 84.3127 15.3392C84.1729 15.1204 83.9724 14.9503 83.7111 14.8288C83.4498 14.7073 83.1308 14.6465 82.7541 14.6465C82.3774 14.6465 82.0462 14.7073 81.7606 14.8288C81.4811 14.9503 81.2563 15.1144 81.0861 15.321C80.916 15.5276 80.8127 15.7615 80.7762 16.0228L78.5705 15.9225C78.6434 15.2906 78.8591 14.7467 79.2176 14.291C79.5822 13.8353 80.0683 13.4829 80.676 13.2337C81.2836 12.9785 81.9885 12.8509 82.7905 12.8509C83.386 12.8509 83.9299 12.9238 84.4221 13.0697C84.9142 13.2094 85.3396 13.4191 85.6981 13.6986C86.0566 13.9781 86.3331 14.3244 86.5275 14.7376C86.722 15.1508 86.8192 15.6278 86.8192 16.1686V22.7858H84.5588V21.4186H84.5041C84.3583 21.7042 84.1608 21.9655 83.9116 22.2025C83.6625 22.4334 83.3526 22.6157 82.982 22.7494C82.6113 22.883 82.1647 22.9499 81.6421 22.9499ZM82.2163 21.2363C82.7146 21.2363 83.1339 21.1452 83.4741 20.9629C83.8205 20.7745 84.0818 20.5284 84.258 20.2246C84.4403 19.9147 84.5314 19.5744 84.5314 19.2038V18.1191C84.4585 18.1738 84.3461 18.2224 84.1942 18.265C84.0484 18.3075 83.8752 18.35 83.6747 18.3926C83.4741 18.429 83.2615 18.4655 83.0366 18.502C82.8179 18.5384 82.5991 18.5718 82.3804 18.6022C82.0462 18.6508 81.7393 18.7298 81.4598 18.8392C81.1864 18.9425 80.9646 19.0883 80.7945 19.2767C80.6304 19.4651 80.5484 19.7081 80.5484 20.0059C80.5484 20.2611 80.6182 20.4829 80.758 20.6712C80.8978 20.8535 81.0922 20.9933 81.3413 21.0905C81.5905 21.1877 81.8821 21.2363 82.2163 21.2363Z" fill="#111111"/>
<path d="M76.9478 9.20508V22.7858H74.6235V9.20508H76.9478Z" fill="#111111"/>
<path d="M67.6778 22.9499C67.0337 22.9499 66.4595 22.8405 65.9552 22.6217C65.4569 22.403 65.0619 22.0779 64.7703 21.6465C64.4786 21.209 64.3328 20.6682 64.3328 20.0241C64.3328 19.4711 64.4361 19.0154 64.6427 18.6569C64.8493 18.2923 65.1288 18.0037 65.4812 17.791C65.8397 17.5723 66.2468 17.4082 66.7026 17.2988C67.1644 17.1834 67.6414 17.1013 68.1335 17.0527C68.729 16.9859 69.203 16.9282 69.5554 16.8796C69.9079 16.8249 70.1631 16.7459 70.321 16.6426C70.479 16.5393 70.558 16.3783 70.558 16.1595V16.0957C70.558 15.804 70.4881 15.5519 70.3484 15.3392C70.2086 15.1204 70.0081 14.9503 69.7468 14.8288C69.4855 14.7073 69.1665 14.6465 68.7898 14.6465C68.4131 14.6465 68.0819 14.7073 67.7963 14.8288C67.5168 14.9503 67.292 15.1144 67.1218 15.321C66.9517 15.5276 66.8484 15.7615 66.8119 16.0228L64.6062 15.9225C64.6791 15.2906 64.8948 14.7467 65.2533 14.291C65.6179 13.8353 66.104 13.4829 66.7117 13.2337C67.3193 12.9785 68.0242 12.8509 68.8263 12.8509C69.4217 12.8509 69.9656 12.9238 70.4578 13.0697C70.95 13.2094 71.3753 13.4191 71.7338 13.6986C72.0923 13.9781 72.3688 14.3244 72.5632 14.7376C72.7577 15.1508 72.8549 15.6278 72.8549 16.1686V22.7858H70.5945V21.4186H70.5398C70.394 21.7042 70.1965 21.9655 69.9473 22.2025C69.6982 22.4334 69.3883 22.6157 69.0177 22.7494C68.647 22.883 68.2004 22.9499 67.6778 22.9499ZM68.252 21.2363C68.7503 21.2363 69.1696 21.1452 69.5098 20.9629C69.8562 20.7745 70.1175 20.5284 70.2937 20.2246C70.476 19.9147 70.5671 19.5744 70.5671 19.2038V18.1191C70.4942 18.1738 70.3818 18.2224 70.2299 18.265C70.0841 18.3075 69.9109 18.35 69.7104 18.3926C69.5098 18.429 69.2972 18.4655 69.0723 18.502C68.8536 18.5384 68.6348 18.5718 68.4161 18.6022C68.0819 18.6508 67.775 18.7298 67.4955 18.8392C67.2221 18.9425 67.0003 19.0883 66.8302 19.2767C66.6661 19.4651 66.5841 19.7081 66.5841 20.0059C66.5841 20.2611 66.6539 20.4829 66.7937 20.6712C66.9335 20.8535 67.1279 20.9933 67.377 21.0905C67.6262 21.1877 67.9178 21.2363 68.252 21.2363Z" fill="#111111"/>
<path d="M58.9457 23.0046C57.9978 23.0046 57.1653 22.7919 56.4483 22.3665C55.7374 21.9351 55.1844 21.3396 54.7895 20.5801C54.3945 19.8145 54.197 18.9303 54.197 17.9277C54.197 16.9251 54.3945 16.041 54.7895 15.2754C55.1844 14.5098 55.7374 13.9112 56.4483 13.4798C57.1653 13.0484 57.9978 12.8327 58.9457 12.8327C59.5412 12.8327 60.0911 12.9208 60.5955 13.097C61.0998 13.2671 61.5434 13.5102 61.9262 13.8262C62.3151 14.1421 62.628 14.5189 62.865 14.9564C63.102 15.3878 63.2539 15.8678 63.3207 16.3965L61.0694 16.4967C61.0269 16.2355 60.9479 15.9985 60.8324 15.7858C60.717 15.5731 60.5681 15.3908 60.3858 15.2389C60.2096 15.087 60.003 14.9685 59.766 14.8835C59.5291 14.7984 59.2647 14.7559 58.9731 14.7559C58.4566 14.7559 58.016 14.8895 57.6514 15.1569C57.2929 15.4182 57.0195 15.7858 56.8311 16.2598C56.6428 16.7337 56.5486 17.2897 56.5486 17.9277C56.5486 18.5597 56.6428 19.1126 56.8311 19.5866C57.0195 20.0606 57.2929 20.4282 57.6514 20.6895C58.016 20.9507 58.4566 21.0814 58.9731 21.0814C59.2708 21.0814 59.5351 21.0419 59.766 20.9629C60.003 20.8778 60.2066 20.7593 60.3767 20.6074C60.5529 20.4494 60.6957 20.2611 60.8051 20.0423C60.9205 19.8236 61.0056 19.5805 61.0603 19.3132L63.3207 19.4134C63.266 19.9421 63.1202 20.4251 62.8832 20.8626C62.6462 21.2941 62.3333 21.6708 61.9444 21.9928C61.5616 22.3149 61.115 22.564 60.6046 22.7402C60.0942 22.9165 59.5412 23.0046 58.9457 23.0046Z" fill="#111111"/>
<path d="M48.0169 23.0046C46.9171 23.0046 45.9662 22.8253 45.1641 22.4668C44.3681 22.1022 43.7544 21.5796 43.3229 20.8991C42.8915 20.2185 42.6728 19.4043 42.6667 18.4564H45.0365C45.0486 18.985 45.1762 19.4377 45.4193 19.8145C45.6684 20.1851 46.0148 20.4707 46.4584 20.6712C46.9019 20.8657 47.4245 20.9629 48.0261 20.9629C48.5912 20.9629 49.0803 20.8839 49.4935 20.7259C49.9128 20.5619 50.2379 20.334 50.4688 20.0423C50.7057 19.7446 50.8242 19.3982 50.8242 19.0033C50.8242 18.6751 50.7361 18.3926 50.5599 18.1556C50.3837 17.9186 50.1103 17.7151 49.7396 17.5449C49.3689 17.3687 48.895 17.2138 48.3177 17.0801L46.8412 16.7337C45.5347 16.4299 44.5595 15.9772 43.9154 15.3757C43.2774 14.768 42.9584 13.9872 42.9584 13.0332C42.9584 12.219 43.168 11.5111 43.5873 10.9095C44.0065 10.3079 44.5899 9.84006 45.3373 9.50586C46.0907 9.16558 46.9597 8.99545 47.944 8.99545C48.9466 8.99545 49.8156 9.16862 50.5508 9.51498C51.286 9.86133 51.8572 10.3505 52.2643 10.9824C52.6775 11.6144 52.8963 12.3648 52.9206 13.2337H50.6146C50.566 12.5471 50.3017 12.0093 49.8216 11.6204C49.3416 11.2316 48.7097 11.0371 47.9258 11.0371C47.4275 11.0371 46.984 11.1191 46.5951 11.2832C46.2123 11.4412 45.9115 11.6599 45.6927 11.9395C45.4801 12.219 45.3737 12.541 45.3737 12.9056C45.3737 13.2276 45.4649 13.5041 45.6472 13.735C45.8294 13.9599 46.0998 14.1543 46.4584 14.3184C46.8229 14.4763 47.2756 14.6191 47.8164 14.7467L49.1654 15.0658C49.8277 15.2177 50.411 15.406 50.9154 15.6309C51.4197 15.8496 51.842 16.1139 52.1823 16.4238C52.5287 16.7337 52.79 17.0922 52.9662 17.4994C53.1424 17.9065 53.2305 18.3683 53.2305 18.8848C53.2305 19.7172 53.0209 20.4434 52.6016 21.0632C52.1823 21.6829 51.5807 22.163 50.7969 22.5033C50.0191 22.8375 49.0925 23.0046 48.0169 23.0046Z" fill="#111111"/>
<defs>
<clipPath id="clip0_6_86">
<rect width="21.6" height="24" fill="white" transform="translate(5 4)"/>
</clipPath>
</defs>
</svg>
